<?xml version="1.0" encoding="UTF-8" standalone="no"?>
<svg width="32px" height="32px" viewBox="0 0 32 32" version="1.1" xmlns="http://www.w3.org/2000/svg" xmlns:xlink="http://www.w3.org/1999/xlink" xmlns:sketch="http://www.bohemiancoding.com/sketch/ns">
    <!-- Generator: Sketch 3.4 (15575) - http://www.bohemiancoding.com/sketch -->
    <title>AT Car icon</title>
    <desc>Created with Sketch.</desc>
    <defs></defs>
    <g id="Styleguide" stroke="none" stroke-width="1" fill="none" fill-rule="evenodd" sketch:type="MSPage">
        <g id="Elements-Copy" sketch:type="MSArtboardGroup" transform="translate(-640.000000, -205.000000)">
            <g id="Aanbieder_large" sketch:type="MSLayerGroup" transform="translate(88.000000, 155.000000)">
                <g id="contact-2" transform="translate(552.000000, 26.000000)" sketch:type="MSShapeGroup">
                    <g id="AT-Car-icon" transform="translate(0.000000, 24.000000)">
                        <rect id="Rectangle-96" fill="#FFFFFF" x="0" y="0" width="32" height="32"></rect>
                        <g id="AT-car-icon" transform="translate(4.000000, 7.000000)" fill="#0E0F0E">
                            <path d="M12.0577071,6.65938139 L11.9426104,6.65938139 L4.26483992,6.65938139 C4.91870944,5.26653487 5.50463775,3.27938372 6.25995374,1.91032179 C6.31300373,1.81456294 6.47256733,1.59584809 6.58704362,1.54579703 L11.9426104,1.54579703 L12.0577071,1.54579703 L17.4135841,1.54579703 C17.5272331,1.59584809 17.6878308,1.81456294 17.7403638,1.91032179 C18.4955763,3.27938372 19.0816081,5.26653487 19.7358912,6.65938139 L12.0577071,6.65938139 Z M17.3043818,11.4887916 C16.4769882,11.4887916 15.8059524,10.8168251 15.8059524,9.98974165 C15.8059524,9.16162412 16.4769882,8.49069174 17.3043818,8.49069174 C18.1323959,8.49069174 18.8039488,9.16162412 18.8039488,9.98974165 C18.8039488,10.8168251 18.1323959,11.4887916 17.3043818,11.4887916 L17.3043818,11.4887916 Z M6.22169157,11.4887916 C5.3940911,11.4887916 4.72264166,10.8168251 4.72264166,9.98974165 C4.72264166,9.16162412 5.3940911,8.49069174 6.22169157,8.49069174 C7.04949886,8.49069174 7.72063807,9.16162412 7.72063807,9.98974165 C7.72063807,10.8168251 7.04949886,11.4887916 6.22169157,11.4887916 L6.22169157,11.4887916 Z M22.950224,5.46053443 L21.7164241,5.46053443 C21.4411432,5.46053443 21.1927493,5.5684958 21.0056783,5.74181311 C20.3274037,4.23480053 19.4352746,1.9012216 18.9300071,0.983860134 C18.705191,0.57455829 18.2466654,0.0806660184 17.7370546,0.0859399937 L12.0577071,0.0859399937 L11.9426104,0.0859399937 L6.26295267,0.0859399937 C5.75385894,0.0806660184 5.29522991,0.57455829 5.07031038,0.983860134 C4.56473263,1.9012216 3.67291376,4.23480053 2.99474259,5.74181311 C2.80725794,5.5684958 2.55917428,5.46053443 2.28420369,5.46053443 L1.05040371,5.46053443 C0.47016302,5.46053443 -4.80686704e-05,5.93043528 -4.80686704e-05,6.51015892 C-4.80686704e-05,7.09039961 0.47016302,7.56019705 1.05040371,7.56019705 L2.1514236,7.56019705 C2.14976902,7.56360962 2.14811444,7.56722902 2.14656327,7.57095182 L2.14656327,11.4516669 C2.14583939,11.4809323 2.14366776,11.509784 2.14366776,11.5396699 C2.14366776,11.5686251 2.14583939,11.5966495 2.14656327,11.6257081 L2.14656327,11.6705886 L2.14811444,11.6731739 C2.19009942,12.9115239 2.81129098,13.8957925 3.57394917,13.8957925 C3.57829244,13.8957925 3.58222207,13.8949652 3.58222207,13.8949652 C3.57818903,13.9456367 3.57095024,13.9975492 3.57095024,14.0518401 L3.57095024,16.1068291 C3.57095024,16.6410517 4.00434691,17.0748621 4.53846617,17.0748621 L5.43866136,17.0748621 C5.97247038,17.0748621 6.40586706,16.6410517 6.40586706,16.1068291 L6.40586706,14.0518401 C6.40586706,13.99424 6.39904191,13.9397423 6.38932125,13.8860718 L6.54402453,13.8852446 L11.9426104,13.8852446 L12.0577071,13.8852446 L17.4561896,13.8852446 L17.610686,13.8860718 C17.601379,13.9397423 17.5941402,13.99424 17.5941402,14.0518401 L17.5941402,16.1068291 C17.5941402,16.6410517 18.0273301,17.0748621 18.5619664,17.0748621 L19.4617479,17.0748621 C19.9957638,17.0748621 20.4291604,16.6410517 20.4291604,16.1068291 L20.4291604,14.0518401 C20.4291604,13.9975492 20.4221285,13.9466709 20.4140624,13.8957925 L20.4187159,13.8957925 C21.2089849,13.8957925 21.8495144,12.8402736 21.8495144,11.5396699 C21.8495144,11.5283981 21.8482734,11.5177467 21.8482734,11.5071988 L21.8536508,7.57095182 C21.8525133,7.56722902 21.8501348,7.56360962 21.8484803,7.56019705 L22.950224,7.56019705 C23.5297408,7.56019705 23.9999519,7.09039961 23.9999519,6.51015892 C23.9999519,5.93043528 23.5297408,5.46053443 22.950224,5.46053443 L22.950224,5.46053443 Z" id="Fill-1"></path>
                        </g>
                    </g>
                </g>
            </g>
        </g>
    </g>
</svg>