<?xml version="1.0" encoding="UTF-8" standalone="no"?>
<svg width="32px" height="32px" viewBox="0 0 32 32" version="1.1" xmlns="http://www.w3.org/2000/svg" xmlns:xlink="http://www.w3.org/1999/xlink" xmlns:sketch="http://www.bohemiancoding.com/sketch/ns">
    <!-- Generator: Sketch 3.4 (15575) - http://www.bohemiancoding.com/sketch -->
    <title>Chat</title>
    <desc>Created with Sketch.</desc>
    <defs></defs>
    <g id="Styleguide" stroke="none" stroke-width="1" fill="none" fill-rule="evenodd" sketch:type="MSPage">
        <g id="Elements-Copy" sketch:type="MSArtboardGroup" transform="translate(-640.000000, -301.000000)">
            <g id="Aanbieder_large" sketch:type="MSLayerGroup" transform="translate(88.000000, 155.000000)">
                <g id="contact-2" transform="translate(552.000000, 26.000000)" sketch:type="MSShapeGroup">
                    <g id="Chat" transform="translate(0.000000, 120.000000)">
                        <rect id="Rectangle-96" fill="#FFFFFF" x="0" y="0" width="32" height="32"></rect>
                        <path d="M10.796875,10.6757812 C10.796875,10.3554671 10.6992197,10.0976572 10.5039062,9.90234375 C10.3085928,9.70703027 10.0507829,9.609375 9.73046875,9.609375 C9.39452957,9.609375 9.09765754,9.70898338 8.83984375,9.90820312 C8.58202996,10.1074229 8.453125,10.3632797 8.453125,10.6757812 C8.453125,10.9804703 8.58202996,11.2324209 8.83984375,11.4316406 C9.09765754,11.6308604 9.39452957,11.7304688 9.73046875,11.7304688 C10.0507829,11.7304688 10.3085928,11.6347666 10.5039062,11.4433594 C10.6992197,11.2519522 10.796875,10.9960954 10.796875,10.6757812 L10.796875,10.6757812 Z M19.5039062,16.6171875 C19.5039062,16.3984364 19.4042979,16.2031259 19.2050781,16.03125 C19.0058584,15.8593741 18.7500016,15.7734375 18.4375,15.7734375 C18.2265614,15.7734375 18.033204,15.8613272 17.8574219,16.0371094 C17.6816397,16.2128915 17.59375,16.4062489 17.59375,16.6171875 C17.59375,16.8359386 17.6816397,17.0332022 17.8574219,17.2089844 C18.033204,17.3847665 18.2265614,17.4726562 18.4375,17.4726562 C18.7500016,17.4726562 19.0058584,17.3867196 19.2050781,17.2148438 C19.4042979,17.0429679 19.5039062,16.8437511 19.5039062,16.6171875 L19.5039062,16.6171875 Z M16.7382812,10.6757812 C16.7382812,10.3554671 16.6425791,10.0976572 16.4511719,9.90234375 C16.2597647,9.70703027 16.0039079,9.609375 15.6835938,9.609375 C15.3476546,9.609375 15.0507825,9.70898338 14.7929688,9.90820312 C14.535155,10.1074229 14.40625,10.3632797 14.40625,10.6757812 C14.40625,10.9804703 14.535155,11.2324209 14.7929688,11.4316406 C15.0507825,11.6308604 15.3476546,11.7304688 15.6835938,11.7304688 C16.0039079,11.7304688 16.2597647,11.6347666 16.4511719,11.4433594 C16.6425791,11.2519522 16.7382812,10.9960954 16.7382812,10.6757812 L16.7382812,10.6757812 Z M24.1796875,16.6171875 C24.1796875,16.3984364 24.078126,16.2031259 23.875,16.03125 C23.671874,15.8593741 23.4179703,15.7734375 23.1132812,15.7734375 C22.9023427,15.7734375 22.7089853,15.8613272 22.5332031,16.0371094 C22.357421,16.2128915 22.2695312,16.4062489 22.2695312,16.6171875 C22.2695312,16.8359386 22.357421,17.0332022 22.5332031,17.2089844 C22.7089853,17.3847665 22.9023427,17.4726562 23.1132812,17.4726562 C23.4179703,17.4726562 23.671874,17.3867196 23.875,17.2148438 C24.078126,17.0429679 24.1796875,16.8437511 24.1796875,16.6171875 L24.1796875,16.6171875 Z M21.0625,11.9648438 C20.8203113,11.9335936 20.5468765,11.9179688 20.2421875,11.9179688 C18.9218684,11.9179688 17.7070368,12.218747 16.5976562,12.8203125 C15.4882757,13.421878 14.6152376,14.236323 13.9785156,15.2636719 C13.3417937,16.2910208 13.0234375,17.4140564 13.0234375,18.6328125 C13.0234375,19.2421905 13.1132804,19.8359346 13.2929688,20.4140625 C13.0195299,20.4375001 12.7539075,20.4492188 12.4960938,20.4492188 C12.2929677,20.4492188 12.0976572,20.4433594 11.9101562,20.4316406 C11.7226553,20.4199218 11.5078137,20.3945314 11.265625,20.3554688 C11.0234363,20.3164061 10.8496099,20.2890626 10.7441406,20.2734375 C10.6386713,20.2578124 10.4257829,20.2167972 10.1054688,20.1503906 C9.78515465,20.083984 9.5898441,20.0429688 9.51953125,20.0273438 L6.5546875,21.515625 L7.3984375,18.9609375 C5.13280117,17.3749921 4,15.4609487 4,13.21875 C4,11.8984309 4.38085557,10.6835993 5.14257812,9.57421875 C5.90430068,8.4648382 6.93554037,7.59180006 8.23632812,6.95507812 C9.53711588,6.31835619 10.9570236,6 12.4960938,6 C13.8711006,6 15.1699158,6.25780992 16.3925781,6.7734375 C17.6152405,7.28906508 18.6386678,8.00194857 19.4628906,8.91210938 C20.2871135,9.82227018 20.8203113,10.8398381 21.0625,11.9648438 L21.0625,11.9648438 Z M28,18.5390625 C28,19.4531296 27.7324246,20.3261677 27.1972656,21.1582031 C26.6621067,21.9902385 25.9375046,22.7460904 25.0234375,23.4257812 L25.6679688,25.546875 L23.3359375,24.2695312 C22.1640566,24.5585952 21.3125027,24.703125 20.78125,24.703125 C19.4609309,24.703125 18.2460993,24.4277371 17.1367188,23.8769531 C16.0273382,23.3261691 15.1543001,22.5781297 14.5175781,21.6328125 C13.8808562,20.6874953 13.5625,19.6562556 13.5625,18.5390625 C13.5625,17.4218694 13.8808562,16.3906297 14.5175781,15.4453125 C15.1543001,14.4999953 16.0273382,13.7519559 17.1367188,13.2011719 C18.2460993,12.6503879 19.4609309,12.375 20.78125,12.375 C22.0390688,12.375 23.2226507,12.6503879 24.3320312,13.2011719 C25.4414118,13.7519559 26.3300748,14.5019484 26.9980469,15.4511719 C27.666019,16.4003954 28,17.429682 28,18.5390625 L28,18.5390625 Z" id="chat-online" fill="#262626"></path>
                    </g>
                </g>
            </g>
        </g>
    </g>
</svg>