<?xml version="1.0" encoding="UTF-8" standalone="no"?>
<svg width="32px" height="32px" viewBox="0 0 32 32" version="1.1" xmlns="http://www.w3.org/2000/svg" xmlns:xlink="http://www.w3.org/1999/xlink" xmlns:sketch="http://www.bohemiancoding.com/sketch/ns">
    <!-- Generator: Sketch 3.4 (15575) - http://www.bohemiancoding.com/sketch -->
    <title>Marker</title>
    <desc>Created with Sketch.</desc>
    <defs></defs>
    <g id="Styleguide" stroke="none" stroke-width="1" fill="none" fill-rule="evenodd" sketch:type="MSPage">
        <g id="Elements-Copy" sketch:type="MSArtboardGroup" transform="translate(-444.000000, -255.000000)">
            <g id="Aanbieder_large" sketch:type="MSLayerGroup" transform="translate(88.000000, 155.000000)">
                <g id="Contact-1" transform="translate(356.000000, 26.000000)" sketch:type="MSShapeGroup">
                    <g id="Marker" transform="translate(0.000000, 74.000000)">
                        <rect id="Rectangle-96" fill="#FFFFFF" x="0" y="0" width="32" height="32"></rect>
                        <path d="M19.4285714,13.2857143 C19.4285714,12.4181504 19.1216549,11.6774584 18.5078125,11.0636161 C17.8939701,10.4497737 17.1532781,10.1428571 16.2857143,10.1428571 C15.4181504,10.1428571 14.6774584,10.4497737 14.0636161,11.0636161 C13.4497737,11.6774584 13.1428571,12.4181504 13.1428571,13.2857143 C13.1428571,14.1532781 13.4497737,14.8939701 14.0636161,15.5078125 C14.6774584,16.1216549 15.4181504,16.4285714 16.2857143,16.4285714 C17.1532781,16.4285714 17.8939701,16.1216549 18.5078125,15.5078125 C19.1216549,14.8939701 19.4285714,14.1532781 19.4285714,13.2857143 L19.4285714,13.2857143 Z M22.5714286,13.2857143 C22.5714286,14.1778318 22.4363853,14.9103394 22.1662946,15.4832589 L17.6975446,24.9854911 C17.5665916,25.2555817 17.3722111,25.4683772 17.1143973,25.6238839 C16.8565835,25.7793907 16.5803586,25.8571429 16.2857143,25.8571429 C15.99107,25.8571429 15.714845,25.7793907 15.4570312,25.6238839 C15.1992175,25.4683772 15.0089292,25.2555817 14.8861607,24.9854911 L10.4051339,15.4832589 C10.1350433,14.9103394 10,14.1778318 10,13.2857143 C10,11.5505866 10.6138331,10.0692026 11.8415179,8.84151786 C13.0692026,7.61383315 14.5505866,7 16.2857143,7 C18.020842,7 19.502226,7.61383315 20.7299107,8.84151786 C21.9575954,10.0692026 22.5714286,11.5505866 22.5714286,13.2857143 L22.5714286,13.2857143 Z" id="map-marker" fill="#262626"></path>
                    </g>
                </g>
            </g>
        </g>
    </g>
</svg>