<?xml version="1.0" encoding="UTF-8" standalone="no"?>
<svg width="32px" height="32px" viewBox="0 0 32 32" version="1.1" xmlns="http://www.w3.org/2000/svg" xmlns:xlink="http://www.w3.org/1999/xlink" xmlns:sketch="http://www.bohemiancoding.com/sketch/ns">
    <!-- Generator: Sketch 3.4 (15575) - http://www.bohemiancoding.com/sketch -->
    <title>phone</title>
    <desc>Created with Sketch.</desc>
    <defs></defs>
    <g id="Styleguide" stroke="none" stroke-width="1" fill="none" fill-rule="evenodd" sketch:type="MSPage">
        <g id="Elements-Copy" sketch:type="MSArtboardGroup" transform="translate(-1049.000000, -370.000000)">
            <g id="Aanbieder_small" sketch:type="MSLayerGroup" transform="translate(1040.000000, 155.000000)">
                <g id="Contact-1" transform="translate(9.000000, 191.000000)" sketch:type="MSShapeGroup">
                    <g id="phone" transform="translate(0.000000, 24.000000)">
                        <rect id="Rectangle-96" fill="#FFFFFF" x="0" y="0" width="32" height="32"></rect>
                        <path d="M24.5,21.03125 C24.5,21.2421886 24.4609379,21.5175764 24.3828125,21.8574219 C24.3046871,22.1972673 24.2226567,22.4648428 24.1367188,22.6601562 C23.9726554,23.0507832 23.4960977,23.4648416 22.7070312,23.9023438 C21.9726526,24.3007832 21.2460973,24.5 20.5273438,24.5 C20.3164052,24.5 20.1113291,24.4863283 19.9121094,24.4589844 C19.7128896,24.4316405 19.4882825,24.3828129 19.2382812,24.3125 C18.98828,24.2421871 18.802735,24.1855471 18.6816406,24.1425781 C18.5605463,24.0996092 18.3437516,24.0195318 18.03125,23.9023438 C17.7187484,23.7851557 17.5273441,23.7148439 17.4570312,23.6914062 C16.6914024,23.4179674 16.0078155,23.0937519 15.40625,22.71875 C14.406245,22.1015594 13.3730522,21.259771 12.3066406,20.1933594 C11.240229,19.1269478 10.3984406,18.093755 9.78125,17.09375 C9.40624812,16.4921845 9.08203262,15.8085976 8.80859375,15.0429688 C8.78515613,14.9726559 8.71484434,14.7812516 8.59765625,14.46875 C8.48046816,14.1562484 8.40039084,13.9394537 8.35742188,13.8183594 C8.31445291,13.697265 8.25781285,13.51172 8.1875,13.2617188 C8.11718715,13.0117175 8.06835951,12.7871104 8.04101562,12.5878906 C8.01367174,12.3886709 8,12.1835948 8,11.9726562 C8,11.2539027 8.19921676,10.5273474 8.59765625,9.79296875 C9.03515844,9.0039023 9.4492168,8.52734457 9.83984375,8.36328125 C10.0351572,8.27734332 10.3027327,8.19531289 10.6425781,8.1171875 C10.9824236,8.03906211 11.2578114,8 11.46875,8 C11.5781255,8 11.660156,8.01171863 11.7148438,8.03515625 C11.8554695,8.08203148 12.0624986,8.37890352 12.3359375,8.92578125 C12.4218754,9.07421949 12.5390618,9.28515488 12.6875,9.55859375 C12.8359382,9.83203262 12.9726556,10.080077 13.0976562,10.3027344 C13.2226569,10.5253917 13.3437494,10.734374 13.4609375,10.9296875 C13.4843751,10.9609377 13.5527338,11.0585929 13.6660156,11.2226562 C13.7792974,11.3867196 13.863281,11.5253901 13.9179688,11.6386719 C13.9726565,11.7519537 14,11.8632807 14,11.9726562 C14,12.128907 13.888673,12.3242176 13.6660156,12.5585938 C13.4433583,12.7929699 13.2011732,13.0078115 12.9394531,13.203125 C12.6777331,13.3984385 12.435548,13.6054677 12.2128906,13.8242188 C11.9902333,14.0429698 11.8789062,14.2226555 11.8789062,14.3632812 C11.8789062,14.4335941 11.8984373,14.5214838 11.9375,14.6269531 C11.9765627,14.7324224 12.0097655,14.8124997 12.0371094,14.8671875 C12.0644533,14.9218753 12.1191402,15.0156243 12.2011719,15.1484375 C12.2832035,15.2812507 12.328125,15.3554687 12.3359375,15.3710938 C12.9296905,16.4414116 13.6093712,17.3593712 14.375,18.125 C15.1406288,18.8906288 16.0585884,19.5703095 17.1289062,20.1640625 C17.1445313,20.171875 17.2187493,20.2167965 17.3515625,20.2988281 C17.4843757,20.3808598 17.5781247,20.4355467 17.6328125,20.4628906 C17.6875003,20.4902345 17.7675776,20.5234373 17.8730469,20.5625 C17.9785162,20.6015627 18.0664059,20.6210938 18.1367188,20.6210938 C18.2773445,20.6210938 18.4570302,20.5097667 18.6757812,20.2871094 C18.8945323,20.064452 19.1015615,19.8222669 19.296875,19.5605469 C19.4921885,19.2988268 19.7070301,19.0566417 19.9414062,18.8339844 C20.1757824,18.611327 20.371093,18.5 20.5273438,18.5 C20.6367193,18.5 20.7480463,18.5273435 20.8613281,18.5820312 C20.9746099,18.636719 21.1132804,18.7207026 21.2773438,18.8339844 C21.4414071,18.9472662 21.5390623,19.0156249 21.5703125,19.0390625 C21.765626,19.1562506 21.9746083,19.2773431 22.1972656,19.4023438 C22.419923,19.5273444 22.6679674,19.6640618 22.9414062,19.8125 C23.2148451,19.9609382 23.4257805,20.0781246 23.5742188,20.1640625 C24.1210965,20.4375014 24.4179685,20.6445305 24.4648438,20.7851562 C24.4882814,20.839844 24.5,20.9218745 24.5,21.03125 L24.5,21.03125 Z" id="Telephone" fill="#262626" transform="translate(16.250000, 16.250000) rotate(-348.000000) translate(-16.250000, -16.250000) "></path>
                    </g>
                </g>
            </g>
        </g>
    </g>
</svg>