<?xml version="1.0" encoding="UTF-8" standalone="no"?>
<svg width="32px" height="32px" viewBox="0 0 32 32" version="1.1" xmlns="http://www.w3.org/2000/svg" xmlns:xlink="http://www.w3.org/1999/xlink" xmlns:sketch="http://www.bohemiancoding.com/sketch/ns">
    <!-- Generator: Sketch 3.4 (15575) - http://www.bohemiancoding.com/sketch -->
    <title>World</title>
    <desc>Created with Sketch.</desc>
    <defs></defs>
    <g id="Styleguide" stroke="none" stroke-width="1" fill="none" fill-rule="evenodd" sketch:type="MSPage">
        <g id="Elements-Copy" sketch:type="MSArtboardGroup" transform="translate(-444.000000, -301.000000)">
            <g id="Aanbieder_large" sketch:type="MSLayerGroup" transform="translate(88.000000, 155.000000)">
                <g id="Contact-1" transform="translate(356.000000, 26.000000)" sketch:type="MSShapeGroup">
                    <g id="World" transform="translate(0.000000, 120.000000)">
                        <rect id="Rectangle-96" fill="#FFFFFF" x="0" y="0" width="32" height="32"></rect>
                        <path d="M16.4285714,7 C18.1391455,7 19.7166966,7.42149876 21.1612723,8.26450893 C22.605848,9.1075191 23.7496238,10.2512949 24.5926339,11.6958705 C25.4356441,13.1404462 25.8571429,14.7179974 25.8571429,16.4285714 C25.8571429,18.1391455 25.4356441,19.7166966 24.5926339,21.1612723 C23.7496238,22.605848 22.605848,23.7496238 21.1612723,24.5926339 C19.7166966,25.4356441 18.1391455,25.8571429 16.4285714,25.8571429 C14.7179974,25.8571429 13.1404462,25.4356441 11.6958705,24.5926339 C10.2512949,23.7496238 9.1075191,22.605848 8.26450893,21.1612723 C7.42149876,19.7166966 7,18.1391455 7,16.4285714 C7,14.7179974 7.42149876,13.1404462 8.26450893,11.6958705 C9.1075191,10.2512949 10.2512949,9.1075191 11.6958705,8.26450893 C13.1404462,7.42149876 14.7179974,7 16.4285714,7 L16.4285714,7 Z M19.7924107,13.3962054 C19.7760416,13.4043899 19.7371655,13.443266 19.6757812,13.5128348 C19.614397,13.5824036 19.559152,13.6212797 19.5100446,13.6294643 C19.5264138,13.6294643 19.5448288,13.6090032 19.5652902,13.5680804 C19.5857516,13.5271575 19.6062127,13.4821431 19.6266741,13.4330357 C19.6471355,13.3839283 19.6614583,13.3552828 19.6696429,13.3470982 C19.7187502,13.2898063 19.8087791,13.2284229 19.9397321,13.1629464 C20.054316,13.113839 20.2671115,13.0647324 20.578125,13.015625 C20.8564002,12.9501485 21.0651035,12.9951629 21.2042411,13.1506696 C21.1878719,13.1343005 21.226748,13.0811016 21.3208705,12.9910714 C21.414993,12.9010412 21.4743302,12.8519346 21.4988839,12.84375 C21.5234376,12.8273809 21.5848209,12.8089659 21.6830357,12.7885045 C21.7812505,12.7680431 21.8426338,12.7373514 21.8671875,12.6964286 L21.8917411,12.4263393 C21.7935263,12.4345239 21.7219124,12.4058783 21.6768973,12.3404018 C21.6318822,12.2749253 21.6052828,12.1889886 21.5970982,12.0825893 C21.5970982,12.0989584 21.5725449,12.1316962 21.5234375,12.1808036 C21.5234375,12.1235116 21.5050225,12.0907739 21.468192,12.0825893 C21.4313614,12.0744047 21.3843009,12.0784969 21.3270089,12.0948661 C21.269717,12.1112352 21.232887,12.1153274 21.2165179,12.1071429 C21.1346722,12.0825892 21.0732889,12.0518975 21.0323661,12.015067 C20.9914432,11.9782364 20.9587055,11.9107148 20.9341518,11.8125 C20.9095981,11.7142852 20.8932292,11.6529019 20.8850446,11.6283482 C20.8686755,11.5874254 20.8297994,11.5444571 20.7684152,11.499442 C20.7070309,11.4544269 20.6681548,11.4114585 20.6517857,11.3705357 C20.6436011,11.3541666 20.6333706,11.3316594 20.6210937,11.3030134 C20.6088169,11.2743674 20.5965402,11.247768 20.5842634,11.2232143 C20.5719865,11.1986606 20.5556177,11.1761534 20.5351562,11.155692 C20.5146948,11.1352306 20.4921876,11.125 20.4676339,11.125 C20.4430802,11.125 20.4144347,11.1454611 20.3816964,11.1863839 C20.3489582,11.2273068 20.3182665,11.268229 20.2896205,11.3091518 C20.2609746,11.3500746 20.2425596,11.3705357 20.234375,11.3705357 C20.2098213,11.3541666 20.185268,11.3480283 20.1607143,11.3521205 C20.1361606,11.3562128 20.1177456,11.360305 20.1054687,11.3643973 C20.0931919,11.3684896 20.0747769,11.3807663 20.0502232,11.4012277 C20.0256695,11.4216891 20.0052084,11.4360119 19.9888393,11.4441964 C19.9642856,11.4605656 19.9295017,11.4728422 19.8844866,11.4810268 C19.8394715,11.4892114 19.8046876,11.4973958 19.7801339,11.5055804 C19.9029024,11.4646575 19.8988102,11.4196431 19.7678571,11.3705357 C19.6860115,11.3377975 19.620536,11.3255208 19.5714286,11.3337054 C19.6450897,11.3009671 19.6757813,11.2518604 19.6635045,11.1863839 C19.6512276,11.1209074 19.6164437,11.0636163 19.5591518,11.0145089 L19.6205357,11.0145089 C19.6123511,10.9817707 19.5775673,10.9469868 19.516183,10.9101563 C19.4547988,10.8733257 19.3831849,10.8385418 19.3013393,10.8058036 C19.2194936,10.7730653 19.1662948,10.748512 19.1417411,10.7321429 C19.0762646,10.69122 18.937129,10.6523439 18.7243304,10.6155134 C18.5115317,10.5786829 18.3764884,10.5766367 18.3191964,10.609375 C18.2782736,10.6584824 18.2598586,10.7014507 18.2639509,10.7382813 C18.2680432,10.7751118 18.2844121,10.8324029 18.313058,10.9101563 C18.341704,10.9879096 18.3560268,11.0390624 18.3560268,11.0636161 C18.3642114,11.1127235 18.3417041,11.1659223 18.2885045,11.2232143 C18.2353048,11.2805062 18.2087054,11.3296129 18.2087054,11.3705357 C18.2087054,11.4278277 18.2659965,11.4912571 18.3805804,11.5608259 C18.4951643,11.6303947 18.5360865,11.7183774 18.5033482,11.8247768 C18.4787945,11.8902533 18.413319,11.9557288 18.3069196,12.0212054 C18.2005203,12.0866819 18.1350448,12.1357885 18.1104911,12.1685268 C18.0695682,12.2340033 18.0634299,12.3097094 18.0920759,12.3956473 C18.1207219,12.4815853 18.1636902,12.5491069 18.2209821,12.5982143 C18.2373513,12.6145834 18.2434896,12.6309523 18.2393973,12.6473214 C18.235305,12.6636906 18.2209823,12.6821056 18.1964286,12.702567 C18.1718749,12.7230284 18.1493677,12.7393973 18.1289062,12.7516741 C18.1084448,12.763951 18.0818454,12.7782737 18.0491071,12.7946429 L18.0122768,12.8191964 C17.9222466,12.8601193 17.838356,12.8355659 17.7606027,12.7455357 C17.6828493,12.6555055 17.6276043,12.5491078 17.5948661,12.4263393 C17.5375741,12.2217252 17.4720986,12.0989585 17.3984375,12.0580357 C17.2101925,11.9925592 17.0915181,11.9966514 17.0424107,12.0703125 C17.0014879,11.9639132 16.8337068,11.8575154 16.5390625,11.7511161 C16.3344484,11.677455 16.0970996,11.6610861 15.8270089,11.7020089 C15.8761163,11.6938244 15.8761163,11.632441 15.8270089,11.5178571 C15.769717,11.3950887 15.6919648,11.345982 15.59375,11.3705357 C15.6183037,11.3214283 15.6346726,11.2498145 15.6428571,11.155692 C15.6510417,11.0615695 15.6551339,11.0063245 15.6551339,10.9899554 C15.6796876,10.883556 15.7287943,10.7894349 15.8024554,10.7075893 C15.8106399,10.6994047 15.8392855,10.6646208 15.8883929,10.6032366 C15.9375002,10.5418524 15.9763763,10.4866074 16.0050223,10.4375 C16.0336683,10.3883926 16.0357144,10.3638393 16.0111607,10.3638393 C16.2976205,10.3965775 16.5022315,10.3515631 16.625,10.2287946 C16.6659228,10.1878718 16.7129834,10.1183041 16.766183,10.0200893 C16.8193827,9.92187451 16.862351,9.85230675 16.8950893,9.81138393 C16.9687504,9.76227654 17.0260415,9.73976932 17.0669643,9.74386161 C17.1078871,9.74795389 17.1672243,9.7704611 17.2449777,9.81138393 C17.322731,9.85230675 17.3820682,9.87276786 17.4229911,9.87276786 C17.537575,9.88095242 17.6010044,9.83593799 17.6132812,9.73772321 C17.6255581,9.63950844 17.5948664,9.55766402 17.5212054,9.4921875 C17.6194201,9.50037206 17.6316968,9.43080431 17.5580357,9.28348214 C17.5171129,9.22619019 17.4843751,9.1893602 17.4598214,9.17299107 C17.3616067,9.14025281 17.2511167,9.16071392 17.1283482,9.234375 C17.0628717,9.26711326 17.0710561,9.29985103 17.1529018,9.33258929 C17.1447172,9.32440472 17.1058411,9.36737304 17.0362723,9.46149554 C16.9667035,9.55561803 16.8991819,9.6272319 16.8337054,9.67633929 C16.7682288,9.72544667 16.7027533,9.70498557 16.6372768,9.61495536 C16.6290922,9.60677079 16.606585,9.55152581 16.5697545,9.44921875 C16.5329239,9.34691169 16.4940478,9.29166671 16.453125,9.28348214 C16.3876485,9.28348214 16.3221729,9.34486546 16.2566964,9.46763393 C16.2812501,9.40215741 16.2362357,9.3407741 16.1216518,9.28348214 C16.0070679,9.22619019 15.9088546,9.19345242 15.8270089,9.18526786 C15.9825157,9.08705308 15.9497779,8.97656311 15.7287946,8.85379464 C15.6715027,8.82105638 15.5876122,8.80059528 15.4771205,8.79241071 C15.3666289,8.78422615 15.2868306,8.80059503 15.2377232,8.84151786 C15.1968004,8.89880981 15.1742932,8.94587035 15.1702009,8.98270089 C15.1661086,9.01953143 15.1865697,9.0522692 15.2315848,9.08091518 C15.2765999,9.10956116 15.3195682,9.13206837 15.3604911,9.1484375 C15.4014139,9.16480663 15.4484744,9.18117551 15.5016741,9.19754464 C15.5548738,9.21391377 15.5896577,9.22619044 15.6060268,9.234375 C15.7206107,9.31622065 15.7533485,9.37351174 15.7042411,9.40625 C15.6878719,9.41443456 15.6530881,9.42875734 15.5998884,9.44921875 C15.5466887,9.46968016 15.4996282,9.48809516 15.4587054,9.50446429 C15.4177825,9.52083342 15.3932292,9.5372023 15.3850446,9.55357143 C15.3604909,9.58630969 15.3604909,9.64360078 15.3850446,9.72544643 C15.4095983,9.80729208 15.4014139,9.86458317 15.3604911,9.89732143 C15.3195682,9.8563986 15.2827383,9.78478474 15.25,9.68247768 C15.2172617,9.58017062 15.1886162,9.51264897 15.1640625,9.47991071 C15.2213545,9.5535718 15.1190489,9.57812512 14.8571429,9.55357143 L14.734375,9.54129464 C14.7016367,9.54129464 14.6361612,9.54947908 14.5379464,9.56584821 C14.4397317,9.58221734 14.3558411,9.58630956 14.2862723,9.578125 C14.2167035,9.56994044 14.1614585,9.53720267 14.1205357,9.47991071 C14.0877975,9.4144342 14.0877975,9.33258978 14.1205357,9.234375 C14.1287203,9.20163674 14.1450892,9.1934523 14.1696429,9.20982143 C14.1369046,9.18526773 14.0918902,9.14639164 14.0345982,9.09319196 C13.9773063,9.03999229 13.9363841,9.00520842 13.9118304,8.98883929 C13.5353404,9.11160776 13.1506716,9.27938882 12.7578125,9.4921875 C12.8069199,9.50037206 12.8560265,9.49627984 12.9051339,9.47991071 C12.9460568,9.46354158 12.9992556,9.43694215 13.0647321,9.40011161 C13.1302087,9.36328107 13.1711309,9.34077385 13.1875,9.33258929 C13.4657752,9.21800538 13.6376485,9.18935983 13.703125,9.24665179 L13.7645089,9.18526786 C13.8790928,9.31622089 13.9609373,9.41852642 14.0100446,9.4921875 C13.9527527,9.45944924 13.8299861,9.45535702 13.6417411,9.47991071 C13.4780498,9.5290181 13.3880209,9.57812475 13.3716518,9.62723214 C13.4289437,9.72544692 13.4494048,9.7991069 13.4330357,9.84821429 C13.4002975,9.82366059 13.3532369,9.78273838 13.2918527,9.72544643 C13.2304684,9.66815448 13.1711312,9.62314004 13.1138393,9.59040179 C13.0565473,9.55766353 12.995164,9.53720242 12.9296875,9.52901786 C12.7987345,9.52901786 12.7087056,9.53311008 12.6595982,9.54129464 C11.4646518,10.1960598 10.5029798,11.1045329 9.77455357,12.2667411 C9.83184552,12.324033 9.88095218,12.3567708 9.921875,12.3649554 C9.95461326,12.3731399 9.97507436,12.4099699 9.98325893,12.4754464 C9.99144349,12.5409229 10.001674,12.5859374 10.0139509,12.6104911 C10.0262277,12.6350448 10.0732883,12.6227681 10.1551339,12.5736607 C10.228795,12.6391372 10.2410717,12.7168894 10.1919643,12.8069196 C10.2001489,12.7987351 10.3802066,12.909225 10.7321429,13.1383929 C10.8876496,13.2775305 10.9735862,13.3634671 10.9899554,13.3962054 C11.0145091,13.4862356 10.9735868,13.5598955 10.8671875,13.6171875 C10.8590029,13.6008184 10.8221729,13.5639884 10.7566964,13.5066964 C10.6912199,13.4494045 10.6543899,13.4330356 10.6462054,13.4575893 C10.6216517,13.4985121 10.6236978,13.5742182 10.6523437,13.6847098 C10.6809897,13.7952014 10.723958,13.8463542 10.78125,13.8381696 C10.723958,13.8381696 10.6850819,13.9036452 10.6646205,14.0345982 C10.6441591,14.1655513 10.6339286,14.3108251 10.6339286,14.4704241 C10.6339286,14.6300231 10.6298364,14.7261903 10.6216518,14.7589286 L10.6462054,14.7712054 C10.6216517,14.8694201 10.6441589,15.0106018 10.7137277,15.1947545 C10.7832965,15.3789072 10.8712792,15.4587055 10.9776786,15.4341518 C10.8712792,15.4587055 10.9531236,15.634671 11.2232143,15.9620536 C11.2723217,16.0275301 11.3050594,16.0643601 11.3214286,16.0725446 C11.3459823,16.0889138 11.3950889,16.1196054 11.46875,16.1646205 C11.5424111,16.2096356 11.6037944,16.2505579 11.6529018,16.2873884 C11.7020092,16.3242189 11.7429314,16.3671873 11.7756696,16.4162946 C11.8084079,16.4572175 11.8493301,16.5492924 11.8984375,16.6925223 C11.9475449,16.8357522 12.004836,16.9319194 12.0703125,16.9810268 C12.0539434,17.0301342 12.0928195,17.1119786 12.186942,17.2265625 C12.2810645,17.3411464 12.3240328,17.4352675 12.3158482,17.5089286 C12.3076636,17.5089286 12.2974331,17.5130208 12.2851562,17.5212054 C12.2728794,17.5293899 12.2626489,17.5334821 12.2544643,17.5334821 C12.279018,17.5907741 12.3424474,17.6480652 12.4447545,17.7053571 C12.5470615,17.7626491 12.6104909,17.815848 12.6350446,17.8649554 C12.6432292,17.8895091 12.6514136,17.9304313 12.6595982,17.9877232 C12.6677828,18.0450152 12.6800594,18.0900296 12.6964286,18.1227679 C12.7127977,18.1555061 12.7455355,18.1636906 12.7946429,18.1473214 C12.811012,17.9836301 12.7127987,17.7299124 12.5,17.3861607 C12.3772315,17.1815466 12.3076638,17.0628722 12.2912946,17.0301339 C12.2667409,16.9892111 12.2442337,16.9257817 12.2237723,16.8398438 C12.2033109,16.7539058 12.1848959,16.6945686 12.1685268,16.6618304 C12.1848959,16.6618304 12.2094492,16.6679687 12.2421875,16.6802455 C12.2749258,16.6925224 12.3097096,16.7068452 12.3465402,16.7232143 C12.3833707,16.7395834 12.4140624,16.7559523 12.4386161,16.7723214 C12.4631698,16.7886906 12.4713542,16.8009672 12.4631696,16.8091518 C12.4386159,16.8664437 12.4468004,16.9380576 12.4877232,17.0239955 C12.528646,17.1099335 12.5777527,17.1856396 12.6350446,17.2511161 C12.6923366,17.3165926 12.7619044,17.3943448 12.84375,17.484375 C12.9255956,17.5744052 12.9747023,17.6276041 12.9910714,17.6439732 C13.0401788,17.6930806 13.0974699,17.7728789 13.1629464,17.8833705 C13.2284229,17.9938622 13.2284229,18.0491071 13.1629464,18.0491071 C13.2366075,18.0491071 13.3184519,18.0900294 13.4084821,18.171875 C13.4985124,18.2537206 13.5680801,18.3355651 13.6171875,18.4174107 C13.6581103,18.4828872 13.6908481,18.589285 13.7154018,18.7366071 C13.7399555,18.8839293 13.7604166,18.9821426 13.7767857,19.03125 C13.7931548,19.088542 13.8279387,19.1437869 13.8811384,19.1969866 C13.9343381,19.2501863 13.9854908,19.2890624 14.0345982,19.3136161 C14.0837056,19.3381698 14.1491811,19.3709075 14.2310268,19.4118304 C14.3128724,19.4527532 14.3660713,19.4813987 14.390625,19.4977679 C14.4315478,19.514137 14.5072539,19.5571053 14.6177455,19.6266741 C14.7282372,19.6962429 14.8162199,19.7433034 14.8816964,19.7678571 C14.9635421,19.8005954 15.0290176,19.8169643 15.078125,19.8169643 C15.1272324,19.8169643 15.1865696,19.8067337 15.2561384,19.7862723 C15.3257072,19.7658109 15.3809522,19.7514881 15.421875,19.7433036 C15.5446435,19.7269344 15.6633179,19.7883178 15.7779018,19.9274554 C15.8924857,20.066593 15.9784223,20.1525296 16.0357143,20.1852679 C16.3303586,20.3407746 16.5554308,20.385789 16.7109375,20.3203125 C16.6945684,20.3284971 16.6966145,20.3591887 16.7170759,20.4123884 C16.7375373,20.4655881 16.7702751,20.5290175 16.8152902,20.6026786 C16.8603053,20.6763397 16.8971353,20.7356769 16.9257812,20.780692 C16.9544272,20.8257071 16.9769344,20.8604909 16.9933036,20.8850446 C17.0342264,20.934152 17.1078864,20.9955353 17.2142857,21.0691964 C17.3206851,21.1428575 17.394345,21.2042408 17.4352679,21.2533482 C17.4843752,21.22061 17.5130208,21.18378 17.5212054,21.1428571 C17.4966517,21.2083337 17.5252972,21.2901781 17.6071429,21.3883929 C17.6889885,21.4866076 17.7626485,21.5275298 17.828125,21.5111607 C17.9427089,21.486607 18,21.3556559 18,21.1183036 C17.7462785,21.241072 17.5457597,21.1674121 17.3984375,20.8973214 C17.3984375,20.8891369 17.3882069,20.8666296 17.3677455,20.8297991 C17.3472841,20.7929686 17.3309152,20.7581847 17.3186384,20.7254464 C17.3063615,20.6927082 17.296131,20.6579243 17.2879464,20.6210938 C17.2797619,20.5842632 17.2797619,20.5535716 17.2879464,20.5290179 C17.296131,20.5044642 17.3165921,20.4921875 17.3493304,20.4921875 C17.4229914,20.4921875 17.4639136,20.4778647 17.4720982,20.4492188 C17.4802828,20.4205728 17.4720983,20.36942 17.4475446,20.2957589 C17.4229909,20.2220978 17.4066221,20.168899 17.3984375,20.1361607 C17.3902529,20.0706842 17.3452385,19.9888398 17.2633929,19.890625 C17.1815472,19.7924102 17.1324406,19.7310269 17.1160714,19.7064732 C17.0751486,19.7801343 17.0096731,19.8128721 16.9196429,19.8046875 C16.8296126,19.7965029 16.7641371,19.7596729 16.7232143,19.6941964 C16.7232143,19.702381 16.717076,19.7248882 16.7047991,19.7617188 C16.6925223,19.7985493 16.6863839,19.8251487 16.6863839,19.8415179 C16.5799846,19.8415179 16.5186013,19.8374256 16.5022321,19.8292411 C16.5104167,19.8046874 16.5206473,19.7330735 16.5329241,19.6143973 C16.545201,19.4957211 16.5595237,19.4036462 16.5758929,19.3381696 C16.5840774,19.3054314 16.6065846,19.2563247 16.6434152,19.1908482 C16.6802457,19.1253717 16.7109374,19.0660345 16.7354911,19.0128348 C16.7600448,18.9596352 16.7764136,18.9084824 16.7845982,18.859375 C16.7927828,18.8102676 16.7743678,18.7713915 16.7293527,18.7427455 C16.6843376,18.7140996 16.6127237,18.703869 16.5145089,18.7120536 C16.3590022,18.7202381 16.2526045,18.8020826 16.1953125,18.9575893 C16.1871279,18.982143 16.1748513,19.0251113 16.1584821,19.0864955 C16.142113,19.1478798 16.1216519,19.1949403 16.0970982,19.2276786 C16.0725445,19.2604168 16.0357145,19.2890624 15.9866071,19.3136161 C15.9293152,19.3381698 15.8311019,19.3463542 15.6919643,19.3381696 C15.5528267,19.3299851 15.4546134,19.309524 15.3973214,19.2767857 C15.2909221,19.2113092 15.1988471,19.0926348 15.1210937,18.9207589 C15.0433404,18.7488831 15.0044643,18.5974709 15.0044643,18.4665179 C15.0044643,18.3846722 15.0146948,18.2762284 15.0351562,18.141183 C15.0556177,18.0061377 15.0678943,17.9038322 15.0719866,17.8342634 C15.0760789,17.7646946 15.0535717,17.6644352 15.0044643,17.5334821 C15.029018,17.517113 15.065848,17.4782369 15.1149554,17.4168527 C15.1640627,17.3554684 15.204985,17.3125001 15.2377232,17.2879464 C15.2540923,17.2797619 15.2725073,17.2736235 15.2929687,17.2695313 C15.3134302,17.265439 15.3318452,17.265439 15.3482143,17.2695313 C15.3645834,17.2736235 15.3809523,17.2674852 15.3973214,17.2511161 C15.4136906,17.2347469 15.4259672,17.2101936 15.4341518,17.1774554 C15.4259672,17.1692708 15.4095983,17.1569941 15.3850446,17.140625 C15.3604909,17.1160713 15.3441221,17.1037946 15.3359375,17.1037946 C15.3932295,17.1283483 15.5098578,17.12221 15.6858259,17.0853795 C15.861794,17.0485489 15.9743301,17.0546873 16.0234375,17.1037946 C16.146206,17.1938249 16.2362348,17.1856404 16.2935268,17.0792411 C16.2935268,17.0710565 16.2832962,17.0321804 16.2628348,16.9626116 C16.2423734,16.8930428 16.2403273,16.8377978 16.2566964,16.796875 C16.2976193,17.0178582 16.4162937,17.0546882 16.6127232,16.9073661 C16.6372769,16.9319198 16.7007063,16.9523809 16.8030134,16.96875 C16.9053205,16.9851191 16.9769343,17.0055802 17.0178571,17.0301339 C17.0424108,17.0465031 17.0710564,17.0690103 17.1037946,17.0976563 C17.1365329,17.1263022 17.1590401,17.1447172 17.171317,17.1529018 C17.1835938,17.1610864 17.2040549,17.1590402 17.2327009,17.1467634 C17.2613469,17.1344865 17.2961307,17.1078871 17.3370536,17.0669643 C17.4188992,17.1815482 17.4680059,17.2797615 17.484375,17.3616071 C17.5744052,17.6889897 17.6521574,17.8690475 17.7176339,17.9017857 C17.7749259,17.9263394 17.8199403,17.9345239 17.8526786,17.9263393 C17.8854168,17.9181547 17.9038318,17.8792786 17.9079241,17.8097098 C17.9120164,17.740141 17.9120164,17.6828499 17.9079241,17.6378348 C17.9038318,17.5928197 17.8976935,17.541667 17.8895089,17.484375 L17.8772321,17.3861607 L17.8772321,17.1651786 L17.8649554,17.0669643 C17.7421869,17.0424106 17.6664808,16.9933039 17.6378348,16.9196429 C17.6091888,16.8459818 17.6153272,16.7702757 17.65625,16.6925223 C17.6971728,16.614769 17.7585561,16.5390629 17.8404018,16.4654018 C17.8485864,16.4572172 17.8813241,16.4428944 17.9386161,16.422433 C17.995908,16.4019716 18.0593374,16.3753722 18.1289062,16.3426339 C18.1984751,16.3098957 18.2496278,16.2771579 18.2823661,16.2444196 C18.4542419,16.0889129 18.5156252,15.9456852 18.4665179,15.8147321 C18.5238098,15.8147321 18.5688242,15.7779022 18.6015625,15.7042411 C18.5933779,15.7042411 18.5729168,15.6919644 18.5401786,15.6674107 C18.5074403,15.642857 18.4767487,15.6223959 18.4481027,15.6060268 C18.4194567,15.5896577 18.4010417,15.5814732 18.3928571,15.5814732 C18.4665182,15.5405504 18.4747027,15.4750749 18.4174107,15.3850446 C18.4583335,15.3604909 18.4890252,15.3154765 18.5094866,15.25 C18.529948,15.1845235 18.5606397,15.1436013 18.6015625,15.1272321 C18.6752236,15.2254469 18.7611602,15.2336314 18.859375,15.1517857 C18.916667,15.0863092 18.9207592,15.0208337 18.8716518,14.9553571 C18.9125746,14.8980652 18.9964651,14.8550969 19.1233259,14.8264509 C19.2501866,14.7978049 19.3258927,14.7589288 19.3504464,14.7098214 C19.4077384,14.7261906 19.4404761,14.7180061 19.4486607,14.6852679 C19.4568453,14.6525296 19.4609375,14.6034229 19.4609375,14.5379464 C19.4609375,14.4724699 19.4732142,14.4233633 19.4977679,14.390625 C19.5305061,14.3497022 19.5918894,14.3128722 19.6819196,14.2801339 C19.7719499,14.2473957 19.8251487,14.2269346 19.8415179,14.21875 L20.0502232,14.0837054 C20.0747769,14.0509671 20.0747769,14.0345982 20.0502232,14.0345982 C20.1975454,14.0509673 20.3244042,14.0059529 20.4308036,13.8995536 C20.5126492,13.8095234 20.4880959,13.7276789 20.3571429,13.6540179 C20.3816966,13.6049105 20.3694199,13.5660344 20.3203125,13.5373884 C20.2712051,13.5087424 20.2098218,13.4862352 20.1361607,13.4698661 C20.1607144,13.4616815 20.2077749,13.4596354 20.2773437,13.4637277 C20.3469126,13.46782 20.3898809,13.4616816 20.40625,13.4453125 C20.5290185,13.3634669 20.5003729,13.2979913 20.3203125,13.2488839 C20.1811749,13.2079611 20.0052094,13.2570678 19.7924107,13.3962054 L19.7924107,13.3962054 Z M17.7912946,24.1629464 C19.477315,23.8683021 20.9136845,23.0948723 22.1004464,21.8426339 C22.0758927,21.8180802 22.02474,21.7996652 21.9469866,21.7873884 C21.8692332,21.7751115 21.8180805,21.7607888 21.7935268,21.7444196 C21.6462046,21.6871277 21.5479913,21.6543899 21.4988839,21.6462054 C21.5070685,21.5889134 21.4968379,21.5357145 21.468192,21.4866071 C21.439546,21.4374998 21.4068082,21.4006698 21.3699777,21.3761161 C21.3331471,21.3515624 21.2819944,21.3188246 21.2165179,21.2779018 C21.1510413,21.236979 21.1060269,21.2083334 21.0814732,21.1919643 C21.0651041,21.1755952 21.0364585,21.1510418 20.9955357,21.1183036 C20.9546129,21.0855653 20.9259673,21.0630581 20.9095982,21.0507812 C20.8932291,21.0385044 20.8625374,21.0200894 20.8175223,20.9955357 C20.7725072,20.970982 20.7377233,20.9627976 20.7131696,20.9709821 C20.6886159,20.9791667 20.6476937,20.9832589 20.5904018,20.9832589 L20.5535714,20.9955357 C20.5290177,21.0037203 20.5065105,21.0139508 20.4860491,21.0262277 C20.4655877,21.0385045 20.4430805,21.0507812 20.4185268,21.063058 C20.3939731,21.0753349 20.3776042,21.0876115 20.3694196,21.0998884 C20.3612351,21.1121652 20.3612351,21.1223958 20.3694196,21.1305804 C20.1975438,20.9914428 20.0502238,20.9014139 19.9274554,20.8604911 C19.8865325,20.8523065 19.8415181,20.8297993 19.7924107,20.7929687 C19.7433033,20.7561382 19.700335,20.7274927 19.6635045,20.7070312 C19.6266739,20.6865698 19.5857517,20.6804315 19.5407366,20.6886161 C19.4957215,20.6968006 19.448661,20.7254462 19.3995536,20.7745536 C19.3586307,20.8154764 19.3340774,20.8768597 19.3258929,20.9587054 C19.3177083,21.040551 19.3095239,21.0937499 19.3013393,21.1183036 C19.2440473,21.0773807 19.2440473,21.0057669 19.3013393,20.9034598 C19.3586312,20.8011528 19.3668157,20.7254467 19.3258929,20.6763393 C19.3013392,20.6272319 19.2583708,20.6088169 19.1969866,20.6210937 C19.1356024,20.6333706 19.0864957,20.6517856 19.0496652,20.6763393 C19.0128346,20.700893 18.9657741,20.7356769 18.9084821,20.780692 C18.8511902,20.8257071 18.8143602,20.8523065 18.7979911,20.8604911 C18.7816219,20.8686756 18.7468381,20.8911829 18.6936384,20.9280134 C18.6404387,20.9648439 18.6056548,20.9955356 18.5892857,21.0200893 C18.564732,21.0528275 18.5401787,21.1019342 18.515625,21.1674107 C18.4910713,21.2328872 18.4706102,21.2779017 18.4542411,21.3024554 C18.4378719,21.2697171 18.3908114,21.2431177 18.313058,21.2226562 C18.2353047,21.2021948 18.1964286,21.1796876 18.1964286,21.1551339 C18.2127977,21.2369796 18.2291666,21.3802073 18.2455357,21.5848214 C18.2619048,21.7894355 18.2823659,21.9449399 18.3069196,22.0513393 C18.3642116,22.3050608 18.3151049,22.5014874 18.1595982,22.640625 C17.938615,22.8452391 17.8199406,23.008928 17.8035714,23.1316964 C17.7708332,23.3117569 17.8199398,23.4181546 17.9508929,23.4508929 C17.9508929,23.5081848 17.9181551,23.5920753 17.8526786,23.702567 C17.7872021,23.8130586 17.7585565,23.9010413 17.7667411,23.9665179 C17.7667411,24.0156252 17.7749255,24.0811008 17.7912946,24.1629464 L17.7912946,24.1629464 Z" id="world" fill="#333333"></path>
                    </g>
                </g>
            </g>
        </g>
    </g>
</svg>