<?xml version="1.0" encoding="utf-8"?>
<!-- Generator: Adobe Illustrator 19.1.0, SVG Export Plug-In . SVG Version: 6.00 Build 0)  -->
<!DOCTYPE svg PUBLIC "-//W3C//DTD SVG 1.1//EN" "http://www.w3.org/Graphics/SVG/1.1/DTD/svg11.dtd">
<svg version="1.1" id="Layer_1" xmlns="http://www.w3.org/2000/svg" xmlns:xlink="http://www.w3.org/1999/xlink" x="0px" y="0px"
	 viewBox="0 0 430.9 90.7" style="enable-background:new 0 0 430.9 90.7;" xml:space="preserve">
<g>
	<path d="M121.8,15.3h2.8h2.8l25,56.2H148h-4.4l-7.2-16.6h-23.1l-6.7,16.6h-4.3H98L121.8,15.3z M116.2,47.9h17.2l-8.9-20.2h0
		L116.2,47.9z"/>
	<path d="M165.3,57.7c0,2.8,0.6,4.9,1.8,6.4c1.2,1.5,3,2.2,5.3,2.2c3,0,5.8-1.6,8.4-4.7l0.7-0.9V34.8h3.6h3.6v36.6h-3.6h-3.6v-5.3
		c-3.4,4.1-6.9,6.1-10.5,6.1c-4.2,0-7.5-1.3-9.7-3.9c-2.2-2.6-3.3-6.3-3.3-11.3V34.8h3.6h3.6V57.7z"/>
	<path d="M221.7,70.1c-2,1.5-4.8,2.2-8.3,2.2c-3.9,0-7-1.1-9.2-3.2c-2.2-2.1-3.3-5.1-3.3-9V41.5h-6.2v-1l13.4-13h0.1v7.3h11.1v6.7
		h-11.1v17.6c0,2.1,0.5,3.7,1.5,4.7c1,1.1,2.5,1.6,4.5,1.6c3.3,0,5.8-0.8,7.5-2.2V70.1z"/>
	<path d="M231.1,66.9c-3.6-3.6-5.5-8.2-5.5-13.8c0-5.6,1.8-10.2,5.5-13.8c3.6-3.6,8.3-5.4,14.1-5.4c5.7,0,10.4,1.8,14.1,5.4
		c3.7,3.6,5.5,8.2,5.5,13.8c0,5.6-1.8,10.2-5.5,13.8c-3.7,3.6-8.4,5.4-14.1,5.4C239.4,72.3,234.7,70.5,231.1,66.9 M253.9,62.4
		c2.3-2.4,3.4-5.4,3.4-9.2c0-3.8-1.1-6.9-3.4-9.3c-2.3-2.4-5.2-3.6-8.8-3.6c-3.6,0-6.5,1.2-8.7,3.6c-2.2,2.4-3.4,5.5-3.4,9.3
		c0,3.8,1.1,6.8,3.4,9.2c2.2,2.4,5.2,3.6,8.7,3.6C248.7,66,251.6,64.8,253.9,62.4"/>
	<polygon points="276.6,19.4 255.7,19.4 255.7,17.6 255.7,15.9 301.7,15.9 301.7,17.6 301.7,19.4 280.9,19.4 280.9,71.5 278.7,71.5 
		276.6,71.5 	"/>
	<path d="M296.3,34.8h2h2v10c1.5-2.8,3.3-5.1,5.3-7.1c2.7-2.5,5.3-3.8,8-3.8c1.2,0,2.4,0.4,3.7,1.1c1.3,0.7,2.8,1.9,4.4,3.4l-2,3.4
		c-1.8-1.5-3.3-2.6-4.4-3.2c-1.2-0.6-2.3-1-3.3-1c-1.7,0-3.5,0.9-5.4,2.7c-1.9,1.8-4,4.5-6.2,8.2v22.8h-2h-2V34.8z"/>
	<path d="M332.5,72.3c-2.7,0-5-0.9-6.8-2.6c-1.9-1.8-2.8-3.9-2.8-6.5c0-4.1,2-7.5,6.1-10c3.9-2.4,9-3.7,15.2-3.8v-4.6
		c0-2.4-0.7-4.2-2-5.4c-1.3-1.1-3.4-1.7-6.2-1.7c-2,0-3.9,0.4-5.7,1.1c-1.8,0.7-3.6,1.9-5.3,3.4V38c1.9-1.4,3.9-2.4,5.8-3.1
		c1.9-0.6,4-1,6.3-1c3.4,0,6.1,0.8,8.1,2.5c2,1.7,3,4,3,6.8v23.3c0,0.6,0.1,1.1,0.3,1.3c0.2,0.3,0.5,0.4,0.9,0.4
		c0.3,0,1-0.3,1.9-0.9c1-0.6,2-1.3,3-2.2l0,3c-1.2,1-2.5,1.9-4,2.7c-1.5,0.8-2.7,1.1-3.5,1.1c-0.8,0-1.5-0.4-1.9-1.1
		c-0.4-0.8-0.7-1.8-0.7-3.2v-0.1c-1.1,1-2.5,1.8-4,2.6C337.5,71.6,334.9,72.3,332.5,72.3 M344.1,52.5c-4.7,0.1-8.8,1.1-12.2,3.1
		c-3.6,2-5.3,4.5-5.3,7.4c0,1.7,0.7,3.1,2.1,4.2c1.4,1.1,3.1,1.7,5.2,1.7c2,0,4-0.4,5.9-1.3c1.9-0.9,3.3-2,4.3-3.4V52.5z"/>
	<path d="M387.1,70.3c-1.9,0.7-3.6,1.2-5.1,1.5c-1.5,0.3-3.1,0.4-4.8,0.4c-5.4,0-9.7-1.8-13.2-5.4c-3.4-3.6-5.1-8.2-5.1-13.8
		c0-5.6,1.7-10.2,5.1-13.8c3.4-3.6,7.8-5.4,13.2-5.4c1.5,0,2.9,0.1,4.3,0.4c1.3,0.3,2.9,0.8,4.8,1.5v4c-2-0.8-3.6-1.3-5.1-1.6
		c-1.4-0.3-2.9-0.4-4.5-0.4c-3.8,0-7,1.5-9.7,4.5c-2.7,3-4,6.6-4,10.8c0,4.7,1.3,8.4,3.9,11.1c2.6,2.7,6.2,4.1,10.7,4.1
		c1.6,0,3.2-0.1,4.6-0.4c1.4-0.3,3.1-0.8,4.9-1.6V70.3z"/>
	<path d="M399,71.5h-1.9h-2V15.9h2h1.9V71.5z M400,53.1L400,53.1l20.2-18.3h2.6h2.6L405.6,53L428,71.5h-2.9h-2.9L400,53.1z"/>
	<path d="M71.7,36.7h-3c-0.7,0-1.3,0.3-1.7,0.7c-1.7-3.7-3.9-9.4-5.1-11.7c-0.6-1-1.7-2.2-2.9-2.2H45h-0.3H30.8
		c-1.2,0-2.4,1.2-2.9,2.2c-1.2,2.2-3.4,8-5.1,11.7c-0.5-0.4-1.1-0.7-1.7-0.7h-3c-1.4,0-2.6,1.2-2.6,2.6c0,1.4,1.2,2.6,2.6,2.6h2.7
		c0,0,0,0,0,0v9.5c0,0.1,0,0.1,0,0.2c0,0.1,0,0.1,0,0.2v0.1l0,0c0.1,3,1.6,5.5,3.5,5.5c0,0,0,0,0,0c0,0.1,0,0.3,0,0.4v5
		c0,1.3,1.1,2.4,2.4,2.4h2.2c1.3,0,2.4-1.1,2.4-2.4v-5c0-0.1,0-0.3,0-0.4l0.4,0h13.2H45h13.2l0.4,0c0,0.1,0,0.3,0,0.4v5
		c0,1.3,1.1,2.4,2.4,2.4h2.2c1.3,0,2.4-1.1,2.4-2.4v-5c0-0.1,0-0.3,0-0.4h0c1.9,0,3.5-2.6,3.5-5.8c0,0,0-0.1,0-0.1l0-9.7
		c0,0,0,0,0,0h2.7c1.4,0,2.6-1.2,2.6-2.6C74.3,37.8,73.1,36.7,71.7,36.7 M30.7,51.5c-2,0-3.7-1.6-3.7-3.7c0-2,1.6-3.7,3.7-3.7
		c2,0,3.7,1.6,3.7,3.7C34.4,49.8,32.7,51.5,30.7,51.5 M57.9,51.5c-2,0-3.7-1.6-3.7-3.7c0-2,1.6-3.7,3.7-3.7c2,0,3.7,1.6,3.7,3.7
		C61.6,49.8,59.9,51.5,57.9,51.5 M45,39.6h-0.3H25.9c1.6-3.4,3-8.3,4.9-11.6c0.1-0.2,0.5-0.8,0.8-0.9h13.1H45h13.1
		c0.3,0.1,0.7,0.7,0.8,0.9c1.9,3.4,3.3,8.2,4.9,11.6H45z"/>
	<path d="M86.9,44.3c0-23.2-18.8-42-42-42c-23.2,0-42,18.8-42,42c0,23.2,18.8,42,42,42H81c3.2,0,5.9-2.7,5.9-5.9V44.3z M44.9,80.5
		c-20,0-36.2-16.2-36.2-36.2S24.9,8.2,44.9,8.2c20,0,36.2,16.2,36.2,36.2S64.8,80.5,44.9,80.5"/>
</g>
</svg>
